<?xml version="1.0" encoding="UTF-8" standalone="no"?>
<!-- Created with Inkscape (http://www.inkscape.org/) -->
<svg
   xmlns:svg="http://www.w3.org/2000/svg"
   xmlns="http://www.w3.org/2000/svg"
   xmlns:xlink="http://www.w3.org/1999/xlink"
   xmlns:inkscape="http://www.inkscape.org/namespaces/inkscape"
   version="1.0"
   width="592"
   height="112"
   id="svg1901">
  <defs
     id="defs1903">
    <linearGradient
       id="linearGradient16886">
      <stop
         id="stop16888"
         style="stop-color:#000000;stop-opacity:0.72535211"
         offset="0" />
      <stop
         id="stop16894"
         style="stop-color:#5b5e59;stop-opacity:0.69718307"
         offset="0.5" />
      <stop
         id="stop16890"
         style="stop-color:#000000;stop-opacity:0.73943663"
         offset="1" />
    </linearGradient>
    <marker
       refX="0"
       refY="0"
       orient="auto"
       id="Arrow1Send"
       style="overflow:visible">
      <path
         d="M 0,0 L 5,-5 L -12.5,0 L 5,5 L 0,0 z"
         transform="matrix(-0.2,0,0,-0.2,-1.2,0)"
         id="path3224"
         style="fill-rule:evenodd;stroke:#000000;stroke-width:1pt;marker-start:none" />
    </marker>
    <marker
       refX="0"
       refY="0"
       orient="auto"
       id="Arrow1Mend"
       style="overflow:visible">
      <path
         d="M 0,0 L 5,-5 L -12.5,0 L 5,5 L 0,0 z"
         transform="matrix(-0.4,0,0,-0.4,-4,0)"
         id="path3218"
         style="fill-rule:evenodd;stroke:#000000;stroke-width:1pt;marker-start:none" />
    </marker>
    <marker
       refX="0"
       refY="0"
       orient="auto"
       id="Arrow1Lend"
       style="overflow:visible">
      <path
         d="M 0,0 L 5,-5 L -12.5,0 L 5,5 L 0,0 z"
         transform="matrix(-0.8,0,0,-0.8,-10,0)"
         id="path3212"
         style="fill-rule:evenodd;stroke:#000000;stroke-width:1pt;marker-start:none" />
    </marker>
    <filter
       id="filter16260">
      <feGaussianBlur
         id="feGaussianBlur16262"
         stdDeviation="0.79257246"
         inkscape:collect="always" />
    </filter>
    <filter
       height="1.2733335"
       y="-0.13666676"
       width="1.0582248"
       x="-0.029112423"
       id="filter16498">
      <feGaussianBlur
         id="feGaussianBlur16500"
         stdDeviation="1.1550202"
         inkscape:collect="always" />
    </filter>
    <filter
       height="1.4100003"
       y="-0.20500015"
       width="1.0873373"
       x="-0.043668631"
       id="filter16608">
      <feGaussianBlur
         id="feGaussianBlur16610"
         stdDeviation="1.7325303"
         inkscape:collect="always" />
    </filter>
    <filter
       height="1.2446613"
       y="-0.12233066"
       width="1.1020241"
       x="-0.051012047"
       id="filter16624">
      <feGaussianBlur
         id="feGaussianBlur16626"
         stdDeviation="0.99234375"
         inkscape:collect="always" />
    </filter>
    <filter
       height="1.5712214"
       y="-0.28561065"
       width="1.0859146"
       x="-0.042957313"
       id="filter16682">
      <feGaussianBlur
         id="feGaussianBlur16684"
         stdDeviation="1.8072276"
         inkscape:collect="always" />
    </filter>
    <filter
       height="1.4288698"
       y="-0.21443494"
       width="1.1100858"
       x="-0.055042949"
       id="filter16773">
      <feGaussianBlur
         id="feGaussianBlur16775"
         stdDeviation="0.99120312"
         inkscape:collect="always" />
    </filter>
    <filter
       height="1.2125926"
       y="-0.1062963"
       width="1.138871"
       x="-0.069435485"
       id="filter16882">
      <feGaussianBlur
         id="feGaussianBlur16884"
         stdDeviation="0.22421875"
         inkscape:collect="always" />
    </filter>
    <linearGradient
       x1="341.25"
       y1="551.43811"
       x2="442.21875"
       y2="551.43811"
       id="linearGradient16892"
       xlink:href="#linearGradient16886"
       gradientUnits="userSpaceOnUse"
       gradientTransform="matrix(1,0,0,0.7361542,-76.75,-362.47143)" />
    <linearGradient
       x1="341.25"
       y1="551.43811"
       x2="442.21875"
       y2="551.43811"
       id="linearGradient17456"
       xlink:href="#linearGradient16886"
       gradientUnits="userSpaceOnUse"
       gradientTransform="matrix(1,0,0,0.7361542,2.25,150.89075)" />
    <filter
       height="1.7325352"
       y="-0.36626759"
       width="1.1681558"
       x="-0.084077924"
       id="filter17910">
      <feGaussianBlur
         id="feGaussianBlur17912"
         stdDeviation="1.5928825"
         inkscape:collect="always" />
    </filter>
    <filter
       height="1.9242998"
       y="-0.46214989"
       width="1.1704381"
       x="-0.085219033"
       id="filter17914">
      <feGaussianBlur
         id="feGaussianBlur17916"
         stdDeviation="1.7753966"
         inkscape:collect="always" />
    </filter>
    <filter
       height="3.073447"
       y="-1.0367235"
       width="2.390152"
       x="-0.69507599"
       id="filter17918">
      <feGaussianBlur
         id="feGaussianBlur17920"
         stdDeviation="1.5928825"
         inkscape:collect="always" />
    </filter>
    <filter
       height="1.3704543"
       y="-0.18522713"
       width="1.0551451"
       x="-0.0275726"
       id="filter17924">
      <feGaussianBlur
         id="feGaussianBlur17926"
         stdDeviation="1.5376751"
         inkscape:collect="always" />
    </filter>
    <filter
       height="1.604697"
       y="-0.30234849"
       width="1.2146194"
       x="-0.10730971"
       id="filter17965">
      <feGaussianBlur
         id="feGaussianBlur17967"
         stdDeviation="2.2006875"
         inkscape:collect="always" />
    </filter>
    <filter
       height="1.5021464"
       y="-0.25107318"
       width="1.1008745"
       x="-0.050437238"
       id="filter17975">
      <feGaussianBlur
         id="feGaussianBlur17977"
         stdDeviation="2.1219103"
         inkscape:collect="always" />
    </filter>
    <filter
       height="2.1141362"
       y="-0.55706805"
       width="1.2479292"
       x="-0.12396458"
       id="filter18010">
      <feGaussianBlur
         id="feGaussianBlur18012"
         stdDeviation="2.5825955"
         inkscape:collect="always" />
    </filter>
    <filter
       height="1.4410955"
       y="-0.22054777"
       width="1.1037594"
       x="-0.051879708"
       id="filter18026">
      <feGaussianBlur
         id="feGaussianBlur18028"
         stdDeviation="1.8293002"
         inkscape:collect="always" />
    </filter>
    <filter
       height="1.5094904"
       y="-0.25474522"
       width="1.0838494"
       x="-0.0419247"
       id="filter18044">
      <feGaussianBlur
         id="feGaussianBlur18046"
         stdDeviation="1.6633407"
         inkscape:collect="always" />
    </filter>
    <filter
       height="1.6314906"
       y="-0.31574529"
       width="1.1991336"
       x="-0.099566817"
       id="filter18081">
      <feGaussianBlur
         id="feGaussianBlur18083"
         stdDeviation="1.9692969"
         inkscape:collect="always" />
    </filter>
    <filter
       height="1.6037003"
       y="-0.30185014"
       width="1.1979607"
       x="-0.098980367"
       id="filter18085">
      <feGaussianBlur
         id="feGaussianBlur18087"
         stdDeviation="1.9692969"
         inkscape:collect="always" />
    </filter>
  </defs>
  <g
     transform="translate(-79,-511.36218)"
     id="layer1"
     style="opacity:1">
    <use
       transform="translate(150,-2.5999999e-6)"
       id="use16266"
       x="0"
       y="0"
       width="592"
       height="112"
       xlink:href="#rect16182" />
    <rect
       width="100"
       height="75"
       x="249"
       y="528.36218"
       id="rect13434"
       style="opacity:1;fill:#ffffff;fill-opacity:1;fill-rule:nonzero;stroke:#000000;stroke-width:1;stroke-linecap:square;stroke-linejoin:miter;marker:none;marker-start:none;marker-mid:none;marker-end:none;stroke-miterlimit:4;stroke-dasharray:none;stroke-opacity:1;visibility:visible;display:inline;overflow:visible;enable-background:accumulate" />
    <rect
       width="100"
       height="75"
       x="101"
       y="530.36218"
       id="rect16182"
       style="opacity:0.59926471;fill:#555753;fill-opacity:1;fill-rule:nonzero;stroke:none;stroke-width:1;stroke-linecap:square;stroke-linejoin:miter;marker:none;marker-start:none;marker-mid:none;marker-end:none;stroke-miterlimit:4;stroke-dasharray:none;stroke-opacity:1;visibility:visible;display:inline;overflow:visible;filter:url(#filter16260);enable-background:accumulate" />
    <g
       transform="translate(24,0.9999974)"
       id="g13365">
      <rect
         width="100"
         height="75"
         x="75"
         y="527.36218"
         id="rect11368"
         style="opacity:1;fill:#ffffff;fill-opacity:1;fill-rule:nonzero;stroke:#000000;stroke-width:1;stroke-linecap:square;stroke-linejoin:miter;marker:none;marker-start:none;marker-mid:none;marker-end:none;stroke-miterlimit:4;stroke-dasharray:none;stroke-opacity:1;visibility:visible;display:inline;overflow:visible;enable-background:accumulate" />
      <path
         d="M 126.98557,576.11218 A 22.5,22.5 0 1 1 126.98557,553.61218 L 107.5,564.86218 z"
         id="path13355"
         style="opacity:1;fill:#fce94f;fill-opacity:1;fill-rule:nonzero;stroke:#000000;stroke-width:1;stroke-linecap:square;stroke-linejoin:miter;marker:none;marker-start:none;marker-mid:none;marker-end:none;stroke-miterlimit:4;stroke-dasharray:none;stroke-opacity:1;visibility:visible;display:inline;overflow:visible;enable-background:accumulate" />
      <path
         d="M 135,564.86218 A 2.5,2.5 0 1 1 130,564.86218 A 2.5,2.5 0 1 1 135,564.86218 z"
         transform="translate(7.5,0)"
         id="path13357"
         style="opacity:1;fill:#3465a4;fill-opacity:1;fill-rule:nonzero;stroke:#000000;stroke-width:1;stroke-linecap:square;stroke-linejoin:miter;marker:none;marker-start:none;marker-mid:none;marker-end:none;stroke-miterlimit:4;stroke-dasharray:none;stroke-opacity:1;visibility:visible;display:inline;overflow:visible;enable-background:accumulate" />
      <path
         d="M 150,564.86218 A 2.5,2.5 0 1 1 145,564.86218 A 2.5,2.5 0 1 1 150,564.86218 z"
         transform="translate(7.5,0)"
         id="path13361"
         style="opacity:1;fill:#3465a4;fill-opacity:1;fill-rule:nonzero;stroke:#000000;stroke-width:1;stroke-linecap:square;stroke-linejoin:miter;marker:none;marker-start:none;marker-mid:none;marker-end:none;stroke-miterlimit:4;stroke-dasharray:none;stroke-opacity:1;visibility:visible;display:inline;overflow:visible;enable-background:accumulate" />
      <path
         d="M 165,564.86218 A 2.5,2.5 0 1 1 160,564.86218 A 2.5,2.5 0 1 1 165,564.86218 z"
         transform="translate(7.5,0)"
         id="path13363"
         style="opacity:1;fill:#3465a4;fill-opacity:1;fill-rule:nonzero;stroke:#000000;stroke-width:1;stroke-linecap:square;stroke-linejoin:miter;marker:none;marker-start:none;marker-mid:none;marker-end:none;stroke-miterlimit:4;stroke-dasharray:none;stroke-opacity:1;visibility:visible;display:inline;overflow:visible;enable-background:accumulate" />
    </g>
    <use
       transform="translate(150,0)"
       id="use16270"
       x="0"
       y="0"
       width="592"
       height="112"
       xlink:href="#use16268" />
    <g
       transform="translate(474,0.9999974)"
       id="g13372"
       style="opacity:1">
      <rect
         width="100"
         height="75"
         x="75"
         y="527.36218"
         id="rect13374"
         style="opacity:1;fill:#ffffff;fill-opacity:1;fill-rule:nonzero;stroke:#000000;stroke-width:1;stroke-linecap:square;stroke-linejoin:miter;marker:none;marker-start:none;marker-mid:none;marker-end:none;stroke-miterlimit:4;stroke-dasharray:none;stroke-opacity:1;visibility:visible;display:inline;overflow:visible;enable-background:accumulate" />
      <path
         d="M 128.64308,572.55764 A 22.5,22.5 0 1 1 128.64308,557.16673 L 107.5,564.86218 z"
         id="path13376"
         style="opacity:1;fill:#fce94f;fill-opacity:1;fill-rule:nonzero;stroke:#000000;stroke-width:1;stroke-linecap:square;stroke-linejoin:miter;marker:none;marker-start:none;marker-mid:none;marker-end:none;stroke-miterlimit:4;stroke-dasharray:none;stroke-opacity:1;visibility:visible;display:inline;overflow:visible;enable-background:accumulate" />
      <path
         d="M 135,564.86218 A 2.5,2.5 0 1 1 130,564.86218 A 2.5,2.5 0 1 1 135,564.86218 z"
         transform="translate(-12.5,0)"
         id="path13378"
         style="opacity:1;fill:#3465a4;fill-opacity:1;fill-rule:nonzero;stroke:#000000;stroke-width:1;stroke-linecap:square;stroke-linejoin:miter;marker:none;marker-start:none;marker-mid:none;marker-end:none;stroke-miterlimit:4;stroke-dasharray:none;stroke-opacity:1;visibility:visible;display:inline;overflow:visible;enable-background:accumulate" />
      <path
         d="M 150,564.86218 A 2.5,2.5 0 1 1 145,564.86218 A 2.5,2.5 0 1 1 150,564.86218 z"
         transform="translate(-12.5,0)"
         id="path13380"
         style="opacity:1;fill:#3465a4;fill-opacity:1;fill-rule:nonzero;stroke:#000000;stroke-width:1;stroke-linecap:square;stroke-linejoin:miter;marker:none;marker-start:none;marker-mid:none;marker-end:none;stroke-miterlimit:4;stroke-dasharray:none;stroke-opacity:1;visibility:visible;display:inline;overflow:visible;enable-background:accumulate" />
      <path
         d="M 165,564.86218 A 2.5,2.5 0 1 1 160,564.86218 A 2.5,2.5 0 1 1 165,564.86218 z"
         transform="translate(-12.5,0)"
         id="path13382"
         style="opacity:1;fill:#3465a4;fill-opacity:1;fill-rule:nonzero;stroke:#000000;stroke-width:1;stroke-linecap:square;stroke-linejoin:miter;marker:none;marker-start:none;marker-mid:none;marker-end:none;stroke-miterlimit:4;stroke-dasharray:none;stroke-opacity:1;visibility:visible;display:inline;overflow:visible;enable-background:accumulate" />
      <path
         d="M 165,564.86218 A 2.5,2.5 0 1 1 160,564.86218 A 2.5,2.5 0 1 1 165,564.86218 z"
         transform="translate(2.5,0)"
         id="path13384"
         style="opacity:1;fill:#3465a4;fill-opacity:1;fill-rule:nonzero;stroke:#000000;stroke-width:1;stroke-linecap:square;stroke-linejoin:miter;marker:none;marker-start:none;marker-mid:none;marker-end:none;stroke-miterlimit:4;stroke-dasharray:none;stroke-opacity:1;visibility:visible;display:inline;overflow:visible;enable-background:accumulate" />
    </g>
    <path
       d="M 470,31.34375 C 496.77359,27.150883 526.69134,30.11486 553.375,47.78125 L 554.625,46.5 C 535.20292,33.64127 514.04532,28.33372 493.59375,27.90625 C 492.77204,27.88907 491.94426,27.87659 491.125,27.875 C 483.91694,27.861026 476.89447,28.626102 470,29.6875 L 470,31.34375 z"
       transform="translate(79,511.36218)"
       id="path17931"
       style="opacity:0.6;fill:#555753;fill-opacity:1;fill-rule:evenodd;stroke:none;stroke-width:2;stroke-linecap:butt;stroke-linejoin:miter;stroke-miterlimit:4;stroke-dasharray:none;stroke-opacity:1;filter:url(#filter18026)" />
    <path
       d="M 549,544.70593 L 549,543.04968 C 535.04428,545.19815 521.86884,549.11524 510.53125,554.20593 L 511.46875,550.73718 L 511.875,549.17468 L 510.59375,550.36218 L 500.9375,559.42468 L 499.78125,560.51843 L 501.46875,560.11218 L 515.40625,556.64343 L 517.28125,556.20593 L 515.375,555.86218 L 512.34375,555.26843 C 523.21185,550.47235 535.75509,546.78014 549,544.70593 z"
       id="path17922"
       style="opacity:0.6;fill:#555753;fill-opacity:1;fill-rule:evenodd;stroke:none;stroke-width:2;stroke-linecap:butt;stroke-linejoin:miter;stroke-miterlimit:4;stroke-dasharray:none;stroke-opacity:1;filter:url(#filter17965)" />
    <use
       transform="translate(150,0)"
       id="use16268"
       x="0"
       y="0"
       width="592"
       height="112"
       xlink:href="#use16266" />
    <rect
       width="100"
       height="75"
       x="399"
       y="528.36218"
       id="rect13388"
       style="opacity:1;fill:#ffffff;fill-opacity:1;fill-rule:nonzero;stroke:#000000;stroke-width:1;stroke-linecap:square;stroke-linejoin:miter;marker:none;marker-start:none;marker-mid:none;marker-end:none;stroke-miterlimit:4;stroke-dasharray:none;stroke-opacity:1;visibility:visible;display:inline;overflow:visible;enable-background:accumulate" />
    <path
       d="M 126.98557,576.11218 A 22.5,22.5 0 1 1 126.98557,553.61218 L 107.5,564.86218 z"
       transform="translate(324,0.9999974)"
       id="path13390"
       style="opacity:1;fill:#fce94f;fill-opacity:0.25098039;fill-rule:nonzero;stroke:#000000;stroke-width:1;stroke-linecap:square;stroke-linejoin:miter;marker:none;marker-start:none;marker-mid:none;marker-end:none;stroke-miterlimit:4;stroke-dasharray:none;stroke-opacity:0.25098039;visibility:visible;display:inline;overflow:visible;enable-background:accumulate" />
    <path
       d="M 135,564.86218 A 2.5,2.5 0 1 1 130,564.86218 A 2.5,2.5 0 1 1 135,564.86218 z"
       transform="translate(316.5,0.9999974)"
       id="path13392"
       style="opacity:1;fill:#3465a4;fill-opacity:1;fill-rule:nonzero;stroke:#000000;stroke-width:1;stroke-linecap:square;stroke-linejoin:miter;marker:none;marker-start:none;marker-mid:none;marker-end:none;stroke-miterlimit:4;stroke-dasharray:none;stroke-opacity:1;visibility:visible;display:inline;overflow:visible;enable-background:accumulate" />
    <path
       d="M 150,564.86218 A 2.5,2.5 0 1 1 145,564.86218 A 2.5,2.5 0 1 1 150,564.86218 z"
       transform="translate(316.5,0.9999974)"
       id="path13394"
       style="opacity:1;fill:#3465a4;fill-opacity:1;fill-rule:nonzero;stroke:#000000;stroke-width:1;stroke-linecap:square;stroke-linejoin:miter;marker:none;marker-start:none;marker-mid:none;marker-end:none;stroke-miterlimit:4;stroke-dasharray:none;stroke-opacity:1;visibility:visible;display:inline;overflow:visible;enable-background:accumulate" />
    <path
       d="M 165,564.86218 A 2.5,2.5 0 1 1 160,564.86218 A 2.5,2.5 0 1 1 165,564.86218 z"
       transform="translate(316.5,0.9999974)"
       id="path13396"
       style="opacity:1;fill:#3465a4;fill-opacity:1;fill-rule:nonzero;stroke:#000000;stroke-width:1;stroke-linecap:square;stroke-linejoin:miter;marker:none;marker-start:none;marker-mid:none;marker-end:none;stroke-miterlimit:4;stroke-dasharray:none;stroke-opacity:1;visibility:visible;display:inline;overflow:visible;enable-background:accumulate" />
    <path
       d="M 165,564.86218 A 2.5,2.5 0 1 1 160,564.86218 A 2.5,2.5 0 1 1 165,564.86218 z"
       transform="translate(331.5,0.9999974)"
       id="path13414"
       style="opacity:1;fill:#3465a4;fill-opacity:1;fill-rule:nonzero;stroke:#000000;stroke-width:1;stroke-linecap:square;stroke-linejoin:miter;marker:none;marker-start:none;marker-mid:none;marker-end:none;stroke-miterlimit:4;stroke-dasharray:none;stroke-opacity:1;visibility:visible;display:inline;overflow:visible;enable-background:accumulate" />
    <path
       d="M 126.98557,576.11218 A 22.5,22.5 0 1 1 126.98557,553.61218 L 107.5,564.86218 z"
       transform="translate(174.5,0.9999974)"
       id="path13404"
       style="opacity:1;fill:#fdea50;fill-opacity:0.25098039;fill-rule:nonzero;stroke:#000000;stroke-width:1;stroke-linecap:square;stroke-linejoin:miter;marker:none;marker-start:none;marker-mid:none;marker-end:none;stroke-miterlimit:4;stroke-dasharray:none;stroke-opacity:0.25098039;visibility:visible;display:inline;overflow:visible;enable-background:accumulate" />
    <text
       x="150.73828"
       y="615.36218"
       id="text13416"
       xml:space="preserve"
       style="font-size:12px;font-style:normal;font-variant:normal;font-weight:normal;font-stretch:normal;text-align:center;line-height:125%;writing-mode:lr-tb;text-anchor:middle;fill:#000000;fill-opacity:1;stroke:none;stroke-width:1px;stroke-linecap:butt;stroke-linejoin:miter;stroke-opacity:1;font-family:Bitstream Vera Sans;-inkscape-font-specification:Bitstream Vera Sans"><tspan
         x="150.73828"
         y="615.36218"
         id="tspan13418">I-frame</tspan></text>
    <text
       x="302.46094"
       y="615.36218"
       id="text13420"
       xml:space="preserve"
       style="font-size:12px;font-style:normal;font-variant:normal;font-weight:normal;font-stretch:normal;text-align:center;line-height:125%;writing-mode:lr-tb;text-anchor:middle;fill:#000000;fill-opacity:1;stroke:none;stroke-width:1px;stroke-linecap:butt;stroke-linejoin:miter;stroke-opacity:1;font-family:Bitstream Vera Sans;-inkscape-font-specification:Bitstream Vera Sans"><tspan
         x="302.46094"
         y="615.36218"
         id="tspan13422">P-frame</tspan></text>
    <text
       x="453.08203"
       y="615.36218"
       id="text13424"
       xml:space="preserve"
       style="font-size:12px;font-style:normal;font-variant:normal;font-weight:normal;font-stretch:normal;text-align:center;line-height:125%;writing-mode:lr-tb;text-anchor:middle;fill:#000000;fill-opacity:1;stroke:none;stroke-width:1px;stroke-linecap:butt;stroke-linejoin:miter;stroke-opacity:1;font-family:Bitstream Vera Sans;-inkscape-font-specification:Bitstream Vera Sans"><tspan
         x="453.08203"
         y="615.36218"
         id="tspan13426">B-frame</tspan></text>
    <text
       x="600.73828"
       y="615.36218"
       id="text13428"
       xml:space="preserve"
       style="font-size:12px;font-style:normal;font-variant:normal;font-weight:normal;font-stretch:normal;text-align:center;line-height:125%;writing-mode:lr-tb;text-anchor:middle;fill:#000000;fill-opacity:1;stroke:none;stroke-width:1px;stroke-linecap:butt;stroke-linejoin:miter;stroke-opacity:1;font-family:Bitstream Vera Sans;-inkscape-font-specification:Bitstream Vera Sans"><tspan
         x="600.73828"
         y="615.36218"
         id="tspan13430">I-frame</tspan></text>
    <rect
       width="44"
       height="13"
       x="157"
       y="559.36218"
       id="rect13438"
       style="opacity:1;fill:none;fill-opacity:1;fill-rule:nonzero;stroke:#000000;stroke-width:1;stroke-linecap:square;stroke-linejoin:miter;marker:none;marker-start:none;marker-mid:none;marker-end:none;stroke-miterlimit:4;stroke-dasharray:1, 3;stroke-dashoffset:0;stroke-opacity:1;visibility:visible;display:inline;overflow:visible;enable-background:accumulate" />
    <path
       d="M 135,564.86218 A 2.5,2.5 0 1 1 130,564.86218 A 2.5,2.5 0 1 1 135,564.86218 z"
       transform="translate(171.5,0.9999974)"
       id="path13440"
       style="opacity:1;fill:#3465a4;fill-opacity:1;fill-rule:nonzero;stroke:#000000;stroke-width:1;stroke-linecap:square;stroke-linejoin:miter;marker:none;marker-start:none;marker-mid:none;marker-end:none;stroke-miterlimit:4;stroke-dasharray:none;stroke-opacity:1;visibility:visible;display:inline;overflow:visible;enable-background:accumulate" />
    <path
       d="M 150,564.86218 A 2.5,2.5 0 1 1 145,564.86218 A 2.5,2.5 0 1 1 150,564.86218 z"
       transform="translate(171.5,0.9999974)"
       id="path13442"
       style="opacity:1;fill:#3465a4;fill-opacity:1;fill-rule:nonzero;stroke:#000000;stroke-width:1;stroke-linecap:square;stroke-linejoin:miter;marker:none;marker-start:none;marker-mid:none;marker-end:none;stroke-miterlimit:4;stroke-dasharray:none;stroke-opacity:1;visibility:visible;display:inline;overflow:visible;enable-background:accumulate" />
    <path
       d="M 165,564.86218 A 2.5,2.5 0 1 1 160,564.86218 A 2.5,2.5 0 1 1 165,564.86218 z"
       transform="translate(171.5,0.9999974)"
       id="path13444"
       style="opacity:1;fill:#3465a4;fill-opacity:1;fill-rule:nonzero;stroke:#000000;stroke-width:1;stroke-linecap:square;stroke-linejoin:miter;marker:none;marker-start:none;marker-mid:none;marker-end:none;stroke-miterlimit:4;stroke-dasharray:none;stroke-opacity:1;visibility:visible;display:inline;overflow:visible;enable-background:accumulate" />
    <rect
       width="44"
       height="13"
       x="297"
       y="559.36218"
       id="rect13446"
       style="opacity:1;fill:none;fill-opacity:1;fill-rule:nonzero;stroke:#000000;stroke-width:1;stroke-linecap:square;stroke-linejoin:miter;marker:none;marker-start:none;marker-mid:none;marker-end:none;stroke-miterlimit:4;stroke-dasharray:1, 3;stroke-dashoffset:0;stroke-opacity:1;visibility:visible;display:inline;overflow:visible;enable-background:accumulate" />
    <rect
       width="44"
       height="13"
       x="443"
       y="559.36218"
       id="rect14514"
       style="opacity:1;fill:none;fill-opacity:1;fill-rule:nonzero;stroke:#000000;stroke-width:1;stroke-linecap:square;stroke-linejoin:miter;marker:none;marker-start:none;marker-mid:none;marker-end:none;stroke-miterlimit:4;stroke-dasharray:1, 3;stroke-dashoffset:0;stroke-opacity:1;visibility:visible;display:inline;overflow:visible;enable-background:accumulate" />
    <rect
       width="10"
       height="13"
       x="489"
       y="559.36218"
       id="rect14516"
       style="opacity:1;fill:none;fill-opacity:1;fill-rule:nonzero;stroke:#000000;stroke-width:1;stroke-linecap:square;stroke-linejoin:miter;marker:none;marker-start:none;marker-mid:none;marker-end:none;stroke-miterlimit:4;stroke-dasharray:1, 3;stroke-dashoffset:0;stroke-opacity:1;visibility:visible;display:inline;overflow:visible;enable-background:accumulate" />
    <rect
       width="10"
       height="13"
       x="634"
       y="559.36218"
       id="rect14518"
       style="opacity:1;fill:none;fill-opacity:1;fill-rule:nonzero;stroke:#000000;stroke-width:1;stroke-linecap:square;stroke-linejoin:miter;marker:none;marker-start:none;marker-mid:none;marker-end:none;stroke-miterlimit:4;stroke-dasharray:1, 3;stroke-dashoffset:0;stroke-opacity:1;visibility:visible;display:inline;overflow:visible;enable-background:accumulate" />
    <path
       d="M 170,33.875 C 181.31441,34.652384 193.17617,37.569663 205,42.46875 L 201.875,43 L 200,43.3125 L 201.84375,43.71875 L 215.8125,46.90625 L 217.46875,47.3125 L 216.3125,46.28125 L 206.65625,37.90625 L 205.375,36.78125 L 205.78125,38.21875 L 206.6875,41.40625 C 194.37227,36.218657 181.93506,33.137859 170,32.34375 L 170,33.875 z"
       transform="translate(79,511.36218)"
       id="path18051"
       style="opacity:0.6;fill:#555753;fill-opacity:1;fill-rule:evenodd;stroke:none;stroke-width:2;stroke-linecap:butt;stroke-linejoin:miter;stroke-miterlimit:4;stroke-dasharray:none;stroke-opacity:1;filter:url(#filter18081)" />
    <path
       d="M 243.75,538.75 C 227.75177,538.62303 212.92944,544.48466 201.25,557.6875 L 202.75,559.03125 C 214.07056,546.23409 228.24823,540.62697 243.75,540.75 C 256.59133,540.85192 270.34392,544.95749 284,552.28125 L 280.875,552.96875 L 279,553.375 L 280.84375,553.9375 L 294.8125,558.0625 L 296.46875,558.5625 L 295.3125,557.25 L 285.65625,546.375 L 284.375,544.9375 L 284.78125,546.8125 L 285.6875,550.90625 C 271.56355,543.20553 257.24261,538.85708 243.75,538.75 z"
       id="path14540"
       style="fill:#f57900;fill-opacity:1;fill-rule:evenodd;stroke:none;stroke-width:2;stroke-linecap:butt;stroke-linejoin:miter;stroke-miterlimit:4;stroke-dasharray:none;stroke-opacity:1" />
    <path
       d="M 320,34.40625 C 330.25079,35.674017 340.67284,38.360414 350.625,42.34375 L 347.625,42.875 L 345.75,43.1875 L 347.59375,43.625 L 361.5625,46.8125 L 363.21875,47.1875 L 362.0625,46.1875 L 352.40625,37.78125 L 351.125,36.65625 L 351.53125,38.09375 L 352.46875,41.375 C 341.96165,37.070075 330.90001,34.167893 320,32.84375 L 320,34.40625 z"
       transform="translate(79,511.36218)"
       id="path17984"
       style="opacity:0.6;fill:#555753;fill-opacity:1;fill-rule:evenodd;stroke:none;stroke-width:2;stroke-linecap:butt;stroke-linejoin:miter;stroke-miterlimit:4;stroke-dasharray:none;stroke-opacity:1;filter:url(#filter17975)" />
    <path
       d="M 270,41.15625 C 267.25996,42.774495 264.6364,44.540808 262.25,46.625 L 263.75,47.65625 C 265.69146,45.960655 267.81436,44.500493 270,43.125 L 270,41.15625 z"
       transform="translate(79,511.36218)"
       id="path17982"
       style="opacity:0.6;fill:#555753;fill-opacity:1;fill-rule:evenodd;stroke:none;stroke-width:2;stroke-linecap:butt;stroke-linejoin:miter;stroke-miterlimit:4;stroke-dasharray:none;stroke-opacity:1;filter:url(#filter17975)" />
    <path
       d="M 386.75,538.75 C 369.27331,538.62336 352.95803,544.45234 341.25,557.6875 L 342.75,559.03125 C 354.04197,546.26641 369.72669,540.62664 386.75,540.75 C 400.76013,540.85152 415.67003,544.89547 429.625,552.125 L 426.625,552.8125 L 424.75,553.21875 L 426.59375,553.78125 L 440.5625,557.90625 L 442.21875,558.40625 L 441.0625,557.125 L 431.40625,546.21875 L 430.125,544.78125 L 430.53125,546.65625 L 431.46875,550.875 C 416.9908,543.19712 401.46047,538.8566 386.75,538.75 z"
       id="path16119"
       style="fill:#f57900;fill-opacity:1;fill-rule:evenodd;stroke:none;stroke-width:2;stroke-linecap:butt;stroke-linejoin:miter;stroke-miterlimit:4;stroke-dasharray:none;stroke-opacity:1" />
    <path
       d="M 570.125,535.21875 C 548.32647,535.16798 527.46989,541.67458 510.53125,550.8125 L 511.46875,546.65625 L 511.875,544.75 L 510.59375,546.1875 L 500.9375,557.09375 L 499.78125,558.40625 L 501.46875,557.90625 L 515.40625,553.75 L 517.28125,553.21875 L 515.375,552.78125 L 512.34375,552.09375 C 545.1809,534.68325 592.49092,527.43028 632.375,559.15625 L 633.625,557.59375 C 614.20292,542.14437 593.04532,535.7636 572.59375,535.25 C 571.77204,535.22936 570.94426,535.22066 570.125,535.21875 z"
       id="path16121"
       style="fill:#f57900;fill-opacity:1;fill-rule:evenodd;stroke:none;stroke-width:2;stroke-linecap:butt;stroke-linejoin:miter;stroke-miterlimit:4;stroke-dasharray:none;stroke-opacity:1" />
    <path
       d="M 349,554.51843 L 349,556.48718 C 359.52656,549.86249 372.65355,546.81451 386.75,546.89343 C 390.76863,546.91593 394.87708,547.25853 399,547.76843 L 399,546.20593 C 394.88065,545.70551 390.78463,545.38477 386.75,545.36218 C 372.83552,545.28428 359.70299,548.19734 349,554.51843 z"
       id="path17969"
       style="opacity:0.6;fill:#555753;fill-opacity:1;fill-rule:evenodd;stroke:none;stroke-width:2;stroke-linecap:butt;stroke-linejoin:miter;stroke-miterlimit:4;stroke-dasharray:none;stroke-opacity:1;filter:url(#filter18010)" />
    <path
       d="M 249,546.70147 L 249,545.17022 C 247.24711,545.05359 245.47787,544.83707 243.75,544.82647 C 227.75177,544.72838 212.92944,549.2511 201.25,559.45147 L 202.75,560.48272 C 214.07056,550.59578 228.24823,546.26267 243.75,546.35772 C 245.47293,546.36829 247.24669,546.58101 249,546.70147 z"
       id="path18030"
       style="opacity:0.6;fill:#555753;fill-opacity:1;fill-rule:evenodd;stroke:none;stroke-width:2;stroke-linecap:butt;stroke-linejoin:miter;stroke-miterlimit:4;stroke-dasharray:none;stroke-opacity:1;filter:url(#filter18085)" />
  </g>
</svg>
